<svg xmlns="http://www.w3.org/2000/svg" xmlns:xlink="http://www.w3.org/1999/xlink" version="1.1" x="0px" y="0px" viewBox="0 0 100 100" enable-background="new 0 0 100 100" xml:space="preserve"><path d="M50,11.7c-21.1,0-38.2,17.1-38.2,38.2C11.8,71,28.9,88.2,50,88.2c21.1,0,38.2-17.1,38.2-38.2C88.2,28.9,71.1,11.7,50,11.7z   M50,84.5c-19,0-34.5-15.5-34.5-34.5S31,15.4,50,15.4s34.5,15.5,34.5,34.5S69,84.5,50,84.5z M67.8,50.8c0,0,0,0.1-0.1,0.1  c-0.1,0.1-0.1,0.2-0.2,0.3L53.7,65c-0.4,0.4-0.8,0.5-1.3,0.5c-0.5,0-0.9-0.2-1.3-0.5c-0.7-0.7-0.7-1.9,0-2.6l10.6-10.6H32.4  c-1,0-1.8-0.8-1.8-1.8c0-1,0.8-1.8,1.8-1.8h29.3L51.2,37.7c-0.7-0.7-0.7-1.9,0-2.6c0.7-0.7,1.9-0.7,2.6,0l13.6,13.6  c0.1,0.1,0.2,0.2,0.2,0.3c0,0,0.1,0.1,0.1,0.1c0,0.1,0.1,0.1,0.1,0.2c0,0.1,0,0.1,0.1,0.2c0,0.1,0,0.1,0,0.2c0,0.2,0,0.5,0,0.7  c0,0.1,0,0.1,0,0.2c0,0.1,0,0.1-0.1,0.2C67.8,50.7,67.8,50.8,67.8,50.8z"></path></svg>