<?xml version="1.0" encoding="utf-8"?>
<!-- Generator: Adobe Illustrator 22.0.1, SVG Export Plug-In . SVG Version: 6.00 Build 0)  -->
<svg version="1.1"
	 id="Layer_1" xmlns:cc="http://creativecommons.org/ns#" xmlns:dc="http://purl.org/dc/elements/1.1/" xmlns:inkscape="http://www.inkscape.org/namespaces/inkscape" xmlns:rdf="http://www.w3.org/1999/02/22-rdf-syntax-ns#" xmlns:sodipodi="http://sodipodi.sourceforge.net/DTD/sodipodi-0.dtd" xmlns:svg="http://www.w3.org/2000/svg"
	 xmlns="http://www.w3.org/2000/svg" xmlns:xlink="http://www.w3.org/1999/xlink" x="0px" y="0px" viewBox="0 0 50 50"
	 style="enable-background:new 0 0 50 50;" xml:space="preserve">
<style type="text/css">
	.st0{fill:#FFFFFF;}
</style>
<g transform="translate(0,-952.36218)">
	<path class="st0" d="M25,952.4c-13.8,0-25,11.2-25,25s11.2,25,25,25s25-11.2,25-25C50,963.5,38.8,952.4,25,952.4z M16.7,965.2
		c0.1,0,0.1,0,0.2,0l4.5,1.4c0.6,0.2,1,0.9,0.9,1.5l-0.1,3.4c0,1.2-0.5,1.4-1.4,1.6l-1.9,0.3l0.2,1.3c0.3,2.2,1.1,3.8,2.4,5.7
		c1.5,1.8,2.9,2.8,5,3.7l1.3,0.6l0.7-1.8c0.4-0.8,0.8-1.3,1.9-0.9l3.4,0.7c0.6,0.1,1.3,0.7,1.3,1.3l0.2,4.6c0,0.5-0.6,0.9-1.5,1
		c-5.8,0.4-11.6-1.9-15.4-6.7l0,0c-3.8-4.8-4.8-11-2.9-16.3C15.8,965.6,16.2,965.2,16.7,965.2L16.7,965.2z"/>
</g>
</svg>
