<?xml version="1.0" encoding="utf-8"?>
<!-- Generator: Adobe Illustrator 22.0.1, SVG Export Plug-In . SVG Version: 6.00 Build 0)  -->
<svg version="1.1" id="Layer_1" xmlns="http://www.w3.org/2000/svg" xmlns:xlink="http://www.w3.org/1999/xlink" x="0px" y="0px"
	 viewBox="0 0 50 50" style="enable-background:new 0 0 50 50;" xml:space="preserve">
<style type="text/css">
	.st0{fill:#FFFFFF;}
</style>
<title>mail50</title>
<path class="st0" d="M25,0C11.2,0,0,11.2,0,25s11.2,25,25,25s25-11.2,25-25S38.8,0,25,0z M36,16.5l-11,8.2l-11-8.2H36z M37.5,32.6
	c0,0.5-0.4,0.9-0.9,0.9c0,0-0.1,0-0.1,0h-23c-0.5,0.1-0.9-0.3-1-0.8c0-0.1,0-0.1,0-0.2c0-4.6,0-9.1,0-13.7v-1.3l4.1,3.1l7.7,5.8
	c0.4,0.4,1.1,0.4,1.5,0l11.5-8.7l0.2-0.1c0,0.1,0,0.1,0,0.2L37.5,32.6L37.5,32.6z"/>
</svg>
